<?xml version="1.0" encoding="utf-8"?>
<!-- Generator: Adobe Illustrator 16.0.0, SVG Export Plug-In . SVG Version: 6.00 Build 0)  -->
<!DOCTYPE svg PUBLIC "-//W3C//DTD SVG 1.1//EN" "http://www.w3.org/Graphics/SVG/1.1/DTD/svg11.dtd">
<svg version="1.1" id="Layer_1" xmlns="http://www.w3.org/2000/svg" xmlns:xlink="http://www.w3.org/1999/xlink" x="0px" y="0px"
	 width="79px" height="55px" viewBox="0 0 187 135" enable-background="new 0 0 187 135" xml:space="preserve">
<g>
	<path id="bezel_4_"  fill="#02CEFF" d="M63.92,125.226c0,4.236-3.448,7.669-7.7,7.669H9.302
		c-4.251,0-7.7-3.433-7.7-7.669V9.272c0-4.233,3.448-7.667,7.7-7.667H56.22c4.252,0,7.7,3.434,7.7,7.667V125.226L63.92,125.226z"/>
	<path fill="#02CEFF" d="M85.5,51.457c0,0.438-0.355,0.793-0.793,0.793H39.293c-0.438,0-0.793-0.355-0.793-0.793V26.043
		c0-0.438,0.355-0.793,0.793-0.793h45.413c0.438,0,0.793,0.355,0.793,0.793V51.457z"/>
	<path fill="#02CEFF" d="M185.5,51.457c0,0.438-0.355,0.793-0.793,0.793h-45.414c-0.438,0-0.793-0.355-0.793-0.793V26.043
		c0-0.438,0.355-0.793,0.793-0.793h45.414c0.438,0,0.793,0.355,0.793,0.793V51.457z"/>
	<path fill="#02CEFF" d="M135.5,51.457c0,0.438-0.355,0.793-0.793,0.793H89.293c-0.438,0-0.793-0.355-0.793-0.793V26.043
		c0-0.438,0.355-0.793,0.793-0.793h45.414c0.438,0,0.793,0.355,0.793,0.793V51.457z"/>
	<path fill="#02CEFF" d="M85.5,109.458c0,0.438-0.355,0.792-0.793,0.792H39.293c-0.438,0-0.793-0.354-0.793-0.792V84.042
		c0-0.438,0.355-0.792,0.793-0.792h45.413c0.438,0,0.793,0.354,0.793,0.792V109.458z"/>
	<path fill="#02CEFF" d="M185.5,109.458c0,0.438-0.355,0.792-0.793,0.792h-45.414c-0.438,0-0.793-0.354-0.793-0.792V84.042
		c0-0.438,0.355-0.792,0.793-0.792h45.414c0.438,0,0.793,0.354,0.793,0.792V109.458z"/>
	<path fill="#02CEFF" d="M135.5,109.458c0,0.438-0.355,0.792-0.793,0.792H89.293c-0.438,0-0.793-0.354-0.793-0.792V84.042
		c0-0.438,0.355-0.792,0.793-0.792h45.414c0.438,0,0.793,0.354,0.793,0.792V109.458z"/>
	<path fill="#02CEFF" d="M185.5,80.458c0,0.438-0.355,0.792-0.793,0.792h-45.414c-0.438,0-0.793-0.354-0.793-0.792V55.042
		c0-0.438,0.355-0.792,0.793-0.792h45.414c0.438,0,0.793,0.354,0.793,0.792V80.458z"/>
	<path fill="#02CEFF" d="M135.5,80.458c0,0.438-0.355,0.792-0.793,0.792H89.293c-0.438,0-0.793-0.354-0.793-0.792V55.042
		c0-0.438,0.355-0.792,0.793-0.792h45.414c0.438,0,0.793,0.354,0.793,0.792V80.458z"/>
	<linearGradient id="SVGID_1_" gradientUnits="userSpaceOnUse" x1="30.2588" y1="67.75" x2="85.5" y2="67.75">
		<stop  offset="0.0049" style="stop-color:#FF5858"/>
		<stop  offset="0.2286" style="stop-color:#FF585C"/>
		<stop  offset="0.4683" style="stop-color:#FD5869"/>
		<stop  offset="0.7154" style="stop-color:#FB577F"/>
		<stop  offset="0.966" style="stop-color:#F8579C"/>
		<stop  offset="1" style="stop-color:#F857A1"/>
	</linearGradient>
	<polygon fill="url(#SVGID_1_)" points="85.5,54.25 85.5,81.25 39.729,81.25 30.259,67.57 39.729,54.25 	"/>
</g>
</svg>
